# xmcd
#
# Track frame offsets:
#	150
#	15927
#	37029
#	50318
#	73261
#	88208
#	101849
#	111147
#	117866
#	130019
#	137035
#	144019
#	153722
#
# Disc length: 2219 seconds
#
# Revision: 0
# Processed by: cddbd v1.5.2PL0 Copyright (c) Steve Scherf et al.
# Submitted via: EZCDAudioConverter 1.3.4.1
#
DISCID=b008a90d
DTITLE=Gil Scott-Heron - Revolution Begins 3/3
DYEAR=1900
DGENRE=
TTITLE0=Did You Hear What They Said? [Alternate Take 1]
TTITLE1=The Middle Of Your Day [Alternate Take 1]
TTITLE2=Free Will [Alternate Take 1]
TTITLE3=The Get Out Of The Ghetto Blues [Alternate Ending]
TTITLE4=Speed Kills [Alternate Take 3]
TTITLE5=The King Alfred Plan [Alternate Take]
TTITLE6=No Knock [Alternate Take]
TTITLE7=Wiggy [Alternate Take]
TTITLE8=Ain't No New Thing [Breakdown Take]
TTITLE9=Billy Green Is Dead [Alternate Take]
TTITLE10=And Then He Wrote Meditations [Alternate Take]
TTITLE11=No Knock [Breakdown Alternate Take]
TTITLE12=Free Will [Alternate Take 2]
EXTD=
EXTT0=
EXTT1=
EXTT2=
EXTT3=
EXTT4=
EXTT5=
EXTT6=
EXTT7=
EXTT8=
EXTT9=
EXTT10=
EXTT11=
EXTT12=
PLAYORDER=
